<svg class="contact-img" xmlns="http://www.w3.org/2000/svg" viewBox="0 0 24 24" width="100" height="100" fill="#6e6e6e">
    <path d="M12 .296c-6.63 0-12 5.373-12 12 0 5.303 3.438 9.8 8.205 11.387.6.111.82-.26.82-.577v-2.175c-3.338.726-4.042-1.416-4.042-1.416-.546-1.387-1.333-1.757-1.333-1.757-1.087-.743.083-.728.083-.728 1.205.084 1.838 1.238 1.838 1.238 1.07 1.835 2.809 1.305 3.495.998.108-.775.418-1.305.76-1.605-2.665-.303-5.466-1.334-5.466-5.931 0-1.31.469-2.382 1.236-3.221-.124-.303-.536-1.523.117-3.176 0 0 1.008-.322 3.301 1.23.957-.266 1.983-.399 3.003-.404 1.02.005 2.047.138 3.006.404 2.289-1.553 3.294-1.23 3.294-1.23.653 1.653.242 2.873.118 3.176.77.839 1.235 1.911 1.235 3.221 0 4.609-2.807 5.625-5.479 5.921.43.371.823 1.102.823 2.222v3.293c0 .32.217.694.824.576C20.565 22.092 24 17.592 24 12.296c0-6.627-5.373-12-12-12z"/>
</svg>