<?xml version="1.0" encoding="UTF-8"?>
<svg version="1.1" xmlns="http://www.w3.org/2000/svg" width="706" height="572">
<path d="M0 0 C232.98 0 465.96 0 706 0 C706 188.76 706 377.52 706 572 C473.02 572 240.04 572 0 572 C0 383.24 0 194.48 0 0 Z " fill="#1C2E44" transform="translate(0,0)"/>
<path d="M0 0 C1.42962067 -0.00845947 1.42962067 -0.00845947 2.88812256 -0.01708984 C4.43892517 -0.01101715 4.43892517 -0.01101715 6.02105713 -0.00482178 C7.11923767 -0.00832642 8.21741821 -0.01183105 9.34887695 -0.01544189 C12.97957684 -0.02424444 16.61008181 -0.01841351 20.24078369 -0.01165771 C22.76798541 -0.01300517 25.29518687 -0.01494638 27.8223877 -0.01745605 C33.12171127 -0.02040565 38.42096518 -0.01630768 43.72027588 -0.0067749 C49.82835117 0.00408657 55.93629269 0.00059959 62.04436469 -0.01042771 C67.93740677 -0.02063737 73.83040769 -0.01950482 79.72345734 -0.01366425 C82.22241484 -0.01233327 84.72137578 -0.01395608 87.22032928 -0.01862335 C90.72170419 -0.02372587 94.22282597 -0.01592484 97.72418213 -0.00482178 C98.74995361 -0.00887024 99.7757251 -0.0129187 100.83258057 -0.01708984 C111.28176413 0.04401777 120.84963733 1.65621103 128.88922119 8.82037354 C139.98504614 20.83620407 139.45636206 37.53658468 139.50250244 52.92974854 C139.51150251 54.50951708 139.52062475 56.08928494 139.52986145 57.66905212 C139.54622655 60.96096851 139.5540288 64.2527847 139.5569458 67.54473877 C139.56232413 71.71669681 139.60003528 75.88768433 139.64568996 80.05936909 C139.67575217 83.31722778 139.68267556 86.57486051 139.68367195 89.83284569 C139.68781479 91.36871992 139.70000249 92.90459873 139.7211895 94.44033241 C139.87762784 106.75535799 138.75943658 120.16480674 130.63140869 130.06646729 C122.15745253 138.3940052 111.7809655 139.39192655 100.40484619 139.43096924 C99.55985062 139.43754044 98.71485504 139.44411163 97.84425354 139.45088196 C95.06497078 139.47048934 92.28574184 139.48225188 89.50640869 139.49224854 C88.5496524 139.49632406 87.59289612 139.50039959 86.60714722 139.50459862 C81.53890199 139.52540993 76.4706834 139.53973069 71.40240479 139.5491333 C66.20579891 139.56016343 61.00962522 139.59453841 55.81317139 139.634305 C51.78417241 139.66063501 47.75527371 139.66883976 43.72619629 139.67241478 C41.81271458 139.67724162 39.89923615 139.6887419 37.98583984 139.70745277 C20.08662267 139.87155511 6.03737723 137.26759995 -9.11859131 127.06646729 C-18.83588292 117.12832814 -22.41113855 105.89100901 -22.30609131 92.25396729 C-22.32607178 91.33357666 -22.34605225 90.41318604 -22.36663818 89.46490479 C-22.35845396 77.84330933 -17.37564853 68.91282931 -9.86859131 60.25396729 C-3.27899593 54.25396729 -3.27899593 54.25396729 0.13140869 54.25396729 C-0.36359131 51.77896729 -0.36359131 51.77896729 -0.86859131 49.25396729 C-1.43706787 49.25138916 -2.00554443 49.24881104 -2.59124756 49.24615479 C-8.0841616 48.97105058 -11.37480838 47.90678314 -15.36468506 44.07427979 C-20.88582686 37.39154711 -22.29347426 30.16867781 -22.20843506 21.68365479 C-21.52069192 14.74298266 -18.50036103 9.41410828 -13.36859131 4.75396729 C-9.30710598 1.45879994 -5.22063009 0.00477527 0 0 Z " fill="#FDFDFD" transform="translate(532.8685913085938,209.74603271484375)"/>
<path d="M0 0 C1.63121292 -0.00855011 1.63121292 -0.00855011 3.29537964 -0.01727295 C5.58981363 -0.02668369 7.8842609 -0.03324124 10.17871094 -0.03710938 C13.64803298 -0.0467867 17.11675484 -0.07783698 20.5859375 -0.109375 C31.96583768 -0.16411733 42.57049685 -0.07338648 53.5546875 3.203125 C54.30814453 3.40728027 55.06160156 3.61143555 55.83789062 3.82177734 C72.68160517 8.56478778 86.99095722 17.22463566 96.5546875 32.203125 C104.09538125 45.70167819 105.79775675 58.13171662 105.8671875 73.328125 C105.87564697 75.09748413 105.87564697 75.09748413 105.88427734 76.90258789 C105.73985706 94.42762163 102.30257347 111.36167657 89.5546875 124.203125 C70.44352484 141.79368883 43.79853493 143.75862495 19.07104492 143.484375 C16.22626569 143.45294911 13.38204613 143.44335027 10.53710938 143.4375 C-36.90890233 143.24073836 -36.90890233 143.24073836 -54.0078125 127.390625 C-62.13089926 118.39782873 -64.80553255 107.59065394 -64.7578125 95.765625 C-64.77392578 94.97091797 -64.79003906 94.17621094 -64.80664062 93.35742188 C-64.81520351 82.83364222 -60.92060396 74.10255876 -53.78125 66.41015625 C-49.05356126 62.03866324 -43.91680887 59.42009352 -37.4453125 59.015625 C-36.4553125 59.1084375 -36.4553125 59.1084375 -35.4453125 59.203125 C-35.7753125 56.893125 -36.1053125 54.583125 -36.4453125 52.203125 C-38.270625 51.8628125 -38.270625 51.8628125 -40.1328125 51.515625 C-45.88723936 50.05418326 -48.71468656 46.60123818 -51.6953125 41.640625 C-54.8336623 35.47600931 -55.7299077 28.77693848 -53.83203125 22.01953125 C-50.58793769 14.68816562 -44.1017578 9.41323947 -36.91015625 6.109375 C-24.7826737 1.65045907 -12.83861031 0.05295514 0 0 Z " fill="#FDFEFE" transform="translate(105.4453125,208.796875)"/>
<path d="M0 0 C7.66744218 4.42152365 11.36831773 10.29372759 14.375 18.5 C14.65553587 21.24760128 14.79741871 23.7056554 14.75 26.4375 C14.76160156 27.10201172 14.77320313 27.76652344 14.78515625 28.45117188 C14.73507252 37.05722639 11.39698484 43.13403175 6 49.625 C5.53078125 50.20636719 5.0615625 50.78773438 4.578125 51.38671875 C2.72950377 53.6694085 0.87742712 55.93762563 -1.07983398 58.12841797 C-3.74701014 61.14784483 -4.60216127 62.21679981 -4.9375 66.375 C-4.834375 67.40625 -4.73125 68.4375 -4.625 69.5 C-3.96290527 69.28851318 -3.30081055 69.07702637 -2.61865234 68.85913086 C4.28633214 66.79514752 10.55785 65.98532188 17.75 66.0625 C18.75442139 66.07079834 19.75884277 66.07909668 20.79370117 66.08764648 C34.79999205 66.40553419 44.84514887 70.62491854 55.25 80.125 C63.655187 89.51903253 66.81169736 97.44474531 66.640625 110.08984375 C65.83559023 120.42506955 60.9869572 127.65191879 53.375 134.5 C46.9160991 138.27762285 38.55126713 138.3887553 31.3046875 137.14453125 C16.53114908 132.68854496 8.2760375 116.06737775 1.26220703 103.47680664 C-3.97472846 93.74707424 -3.97472846 93.74707424 -12.625 87.5 C-18.80544607 86.78112636 -24.43208082 86.80725747 -29.625 90.5 C-36.1978068 96.10917867 -41.21355877 103.01794421 -46.39013672 109.87158203 C-54.96257772 121.17608608 -65.39340233 134.51584857 -79.625 138.5 C-88.93277 139.49313675 -95.2597187 138.46870059 -102.7109375 132.95703125 C-110.16651445 126.90110722 -115.5001426 118.79303148 -116.98046875 109.1953125 C-117.8895381 93.8148418 -106.50653827 81.05224666 -96.98828125 70.19921875 C-92.99327176 65.73838099 -88.75674226 61.53124546 -84.49072266 57.33154297 C-80.98436146 53.87793839 -77.63785909 50.36901564 -74.453125 46.61328125 C-71.95177004 43.72175768 -69.35019531 40.92756236 -66.75 38.125 C-63.12129934 34.20903892 -59.50731932 30.28243917 -55.9375 26.3125 C-54.86242187 25.11753906 -54.86242187 25.11753906 -53.765625 23.8984375 C-52.3085825 22.26591178 -50.86099148 20.62491223 -49.421875 18.9765625 C-36.08917826 3.82577075 -20.88935587 -9.48335185 0 0 Z " fill="#FDFDFD" transform="translate(381.625,211.5)"/>
<path d="M0 0 C1.07585609 -0.00525696 1.07585609 -0.00525696 2.17344666 -0.01062012 C4.55070601 -0.01944171 6.92766911 -0.01358628 9.30493164 -0.00683594 C10.95398516 -0.00818262 12.6030383 -0.01012317 14.25209045 -0.01263428 C17.71139295 -0.01558624 21.17059229 -0.01128618 24.62988281 -0.00195312 C29.06654304 0.00943257 33.50296108 0.00288806 37.93961239 -0.00909805 C41.34621508 -0.01632235 44.75276029 -0.01402595 48.1593647 -0.00884247 C49.79525341 -0.00750709 51.43114731 -0.00914981 53.06702995 -0.01380157 C55.35342111 -0.0188752 57.63941938 -0.01114463 59.92578125 0 C61.22768906 0.00159119 62.52959686 0.00318237 63.87095642 0.00482178 C67.02758789 0.25878906 67.02758789 0.25878906 70.02758789 2.25878906 C70.69647771 6.17674553 70.49043652 10.16557683 70.46508789 14.13378906 C70.48506836 15.2359375 70.50504883 16.33808594 70.52563477 17.47363281 C70.52466797 19.06498047 70.52466797 19.06498047 70.52368164 20.68847656 C70.52553467 21.66026855 70.5273877 22.63206055 70.52929688 23.63330078 C69.8727657 27.06898752 68.74353466 28.09158191 66.02758789 30.25878906 C63.27787781 30.75999451 63.27787781 30.75999451 60.08496094 30.76049805 C58.28740608 30.77456947 58.28740608 30.77456947 56.45353699 30.78892517 C55.16184097 30.77769119 53.87014496 30.76645721 52.53930664 30.75488281 C51.19415712 30.7550379 49.84900716 30.75652847 48.50386047 30.7592926 C45.68515248 30.76067618 42.86695354 30.74813152 40.04833984 30.7253418 C36.45046238 30.69703841 32.85343561 30.6996723 29.25549603 30.71243191 C26.47661694 30.71941907 23.69793129 30.71156411 20.91907692 30.69917488 C18.95222191 30.69251127 16.98533957 30.69678749 15.01847839 30.70127869 C8.66065396 30.63451102 3.55435046 30.57248179 -1.97241211 27.25878906 C-3.67944336 24.55175781 -3.67944336 24.55175781 -4.78491211 21.44628906 C-5.16260742 20.42921875 -5.54030273 19.41214844 -5.92944336 18.36425781 C-6.44571289 16.82705078 -6.44571289 16.82705078 -6.97241211 15.25878906 C-7.34237305 14.21851563 -7.71233398 13.17824219 -8.09350586 12.10644531 C-9.1523501 8.67578999 -9.24705183 5.82910537 -8.97241211 2.25878906 C-6.08817133 -0.62545172 -4.03833082 0.00493865 0 0 Z " fill="#1E3046" transform="translate(553.972412109375,260.7412109375)"/>
<path d="M0 0 C1.41163673 -0.00855011 1.41163673 -0.00855011 2.85179138 -0.01727295 C4.84299605 -0.02670423 6.83421619 -0.03324948 8.82543945 -0.03710938 C11.83638679 -0.04676372 14.84663603 -0.07778384 17.85742188 -0.109375 C42.37766087 -0.24596701 42.37766087 -0.24596701 49.99609375 5.765625 C53.53583026 9.49669862 53.67421575 11.96576892 53.5703125 16.953125 C53.15153197 20.5533875 52.08780319 21.88711713 49.30859375 24.203125 C41.18968209 28.24204396 33.8242385 29.3657341 24.87109375 29.44140625 C23.49630859 29.45351387 23.49630859 29.45351387 22.09375 29.46586609 C20.15382762 29.47967296 18.21388129 29.49041025 16.27392578 29.49829102 C14.31128706 29.50976371 12.34867838 29.53014001 10.38623047 29.55981445 C-14.47588612 29.93524206 -14.47588612 29.93524206 -23.57543945 23.9675293 C-26.50760285 21.11554812 -27.06697239 18.04455488 -27.31640625 14.140625 C-27.11403474 10.49793777 -26.79199125 9.34638243 -24.62890625 6.265625 C-16.72907928 0.71893798 -9.30124656 0.04397038 0 0 Z " fill="#1E3045" transform="translate(107.69140625,261.796875)"/>
</svg>
